<svg width="136" height="136" viewBox="0 0 136 136" fill="none" xmlns="http://www.w3.org/2000/svg">
<path d="M67.9524 135.163C105.232 135.163 135.452 104.942 135.452 67.6626C135.452 30.3834 105.232 0.162598 67.9524 0.162598C30.6732 0.162598 0.452393 30.3834 0.452393 67.6626C0.452393 104.942 30.6732 135.163 67.9524 135.163Z" fill="#20201E"/>
<path d="M133.757 67.6633C133.757 103.999 104.298 133.458 67.9523 133.458C31.6069 133.458 2.14771 103.999 2.14771 67.6633C2.14771 31.3274 31.6069 1.86817 67.9523 1.86817C104.298 1.85864 133.757 31.3179 133.757 67.6633Z" fill="white"/>
<path d="M129.118 67.6618C129.118 101.445 101.735 128.828 67.9521 128.828C34.1688 128.828 6.78589 101.445 6.78589 67.6618C6.78589 33.8785 34.1688 6.49561 67.9521 6.49561C101.735 6.49561 129.118 33.8785 129.118 67.6618Z" fill="#20201E"/>
<path d="M123.709 67.6621C123.709 98.4547 98.7451 123.418 67.9525 123.418C37.1598 123.418 12.1962 98.4547 12.1962 67.6621C12.1962 36.8694 37.1503 11.9058 67.9525 11.9058C98.7451 11.9058 123.709 36.8694 123.709 67.6621Z" fill="white"/>
<path d="M110.346 94.3402C106.184 90.4256 100.926 87.8159 95.2114 86.9016C94.3923 86.7778 93.6589 87.4064 93.6589 88.2255C93.6589 88.9017 93.6589 89.6256 93.6589 90.3018C93.6589 90.9209 93.1922 91.6162 92.5732 91.6162C92.1255 91.6162 91.6778 91.6257 91.2207 91.6162C89.6206 91.5876 89.3348 89.6351 89.6587 88.4826C93.0589 76.2913 93.8875 68.8908 93.8494 63.5094C93.8113 57.7852 93.6589 52.0801 91.0873 44.5367C88.6014 37.279 86.3346 30.1642 74.3338 19.2968C73.5147 18.5634 72.6956 18.2015 71.5907 18.1253C70.4097 18.0396 69.4477 18.0015 68.2476 18.0015C63.2663 18.0015 58.4565 18.7348 53.9133 20.0968C52.2084 20.6112 52.4656 21.7922 53.399 22.6018C57.9326 26.4783 64.0759 32.3072 68.3143 39.5839C65.6284 39.8411 63.5806 38.3553 61.8567 36.698C56.1896 31.3072 50.294 27.4593 45.6079 24.8305C44.7888 24.3733 43.9888 24.1829 43.1792 24.6495C38.0169 27.6498 34.5405 30.4785 30.4354 35.2313C29.7401 36.0408 30.1878 36.6694 30.8736 37.0314C35.3596 39.403 42.3791 43.9176 48.8082 49.7751C47.4938 50.88 45.4174 50.518 42.4077 48.937C36.6168 45.8891 31.045 44.1462 26.7971 43.0509C25.8827 42.8127 24.9112 43.0699 24.4445 43.889C21.7205 48.6132 19.8442 54.2707 18.9584 60.0044C18.787 61.1093 19.5394 62.0808 20.6347 62.2713C30.5402 64.0047 48.1986 68.6622 51.1226 88.997C51.3798 90.778 49.7606 92.3401 47.6271 91.34C44.646 89.9494 41.6743 88.5588 38.7027 87.1587C38.3884 87.0159 38.036 86.8921 37.6931 86.8921C32.9023 86.8921 28.4448 86.8921 23.6635 86.8921C21.6729 86.8921 20.8538 88.7969 22.1491 90.2828C25.5208 94.1688 28.6163 98.3595 31.2641 102.807C31.5022 103.198 31.7689 103.35 32.226 103.35C34.2643 103.35 36.312 103.35 38.3503 103.35C38.7694 103.35 39.1218 103.255 39.4837 103.036C41.4076 101.903 43.3316 100.779 45.2651 99.6549C45.627 99.4453 45.9794 99.4453 46.3985 99.4453C61.1709 99.4453 77.0101 99.4453 92.5541 99.4453C93.1732 99.4453 93.678 99.8453 93.678 100.464C93.678 101.217 93.678 101.979 93.678 102.741C93.678 103.569 94.4209 104.189 95.2305 104.065C100.955 103.15 106.203 100.541 110.365 96.6356C111.013 96.007 111.013 94.9593 110.346 94.3402Z" fill="#20201E"/>
<path d="M106.193 95.4741C103.069 92.9216 99.7829 91.2738 95.7826 90.4547C95.4207 90.3785 95.2493 90.5214 95.2493 90.8928C95.2493 90.9595 95.2493 91.0167 95.2493 91.0929C95.2493 92.0739 94.2682 93.2168 93.2777 93.2168C92.411 93.2168 91.5442 93.2168 90.6775 93.2168C88.4869 93.2168 86.5248 91.4072 87.3344 88.5117C96.716 55.0236 86.2296 34.3174 73.0001 22.7261C69.3998 19.583 69.076 19.4116 65.4948 19.5449C62.666 19.6497 59.361 20.0021 56.5608 20.6784C56.0084 20.8117 55.5512 21.2498 56.2751 21.8594C63.066 27.5836 72.1524 37.4605 76.5051 52.8235C76.6575 53.3569 76.3432 53.3188 75.9336 53.3378C72.0381 53.5759 70.7332 51.1948 69.5141 49.6709C60.6944 38.6892 50.7985 32.0125 43.398 27.6217C42.6551 27.1836 42.5408 27.1836 41.9788 27.5169C39.0072 29.2313 35.6641 31.9839 33.3116 34.4793C32.8163 35.0032 32.9496 35.2508 33.483 35.5461C40.1787 39.1368 50.3699 46.204 59.8277 58.1953C60.4182 58.9382 60.4563 59.2811 60.123 59.4716C58.3038 60.5574 55.2655 60.5383 51.9319 58.4715C42.9122 52.8425 33.7402 48.8613 26.5777 46.7945C25.8158 46.5754 25.6824 46.6135 25.3681 47.2707C23.6156 50.9472 21.7107 55.7285 21.025 59.8621C20.9392 60.405 20.8916 60.4431 21.3869 60.5478C41.1216 64.5577 51.951 75.3775 53.1796 89.8547C53.3987 92.3691 50.5509 94.7884 47.7316 93.8931C44.6647 92.9216 41.6836 91.8263 38.6167 90.8548C38.2833 90.75 37.95 90.7024 37.6071 90.7024C33.3687 90.7024 29.1208 90.6928 24.8729 90.6928C24.3014 90.6928 23.9776 91.0452 24.5395 91.7596C27.7397 95.8075 29.6065 98.1029 31.8638 101.894C32.0924 102.284 32.3591 102.437 32.8258 102.437C34.3878 102.437 35.9498 102.437 37.5119 102.437C38.1309 102.437 38.6643 102.294 39.1977 101.979C40.9026 100.989 42.5884 100.055 44.2838 99.0649C44.8267 98.7505 45.2838 98.5505 45.9124 98.5505C61.3231 98.541 77.8385 98.5505 93.2396 98.5505C94.2206 98.5505 95.2397 99.703 95.2397 100.694C95.2397 100.808 95.2397 100.922 95.2397 101.036C95.2397 101.408 95.4207 101.551 95.7731 101.475C99.7734 100.646 103.059 98.722 106.183 96.1789C106.469 95.9313 106.469 95.7122 106.193 95.4741ZM75.9622 87.6926C71.419 87.6926 67.733 84.0066 67.733 79.473C67.733 74.9298 71.419 71.2438 75.9622 71.2438C80.4958 71.2438 84.1818 74.9298 84.1818 79.473C84.1818 84.0066 80.4958 87.6926 75.9622 87.6926Z" fill="#4BA82E"/>
<path d="M84.6294 79.8725C84.6294 84.9967 80.4767 89.1494 75.3525 89.1494C70.2284 89.1494 66.0757 84.9967 66.0757 79.8725C66.0757 74.7484 70.2284 70.5957 75.3525 70.5957C80.4767 70.5957 84.6294 74.7484 84.6294 79.8725Z" fill="#20201E"/>
<path d="M83.1817 79.6343C83.1817 83.0631 80.391 85.8538 76.9622 85.8538C73.5238 85.8538 70.7427 83.0631 70.7427 79.6343C70.7427 76.1959 73.5238 73.4053 76.9622 73.4053C80.4005 73.4148 83.1817 76.1959 83.1817 79.6343Z" fill="white"/>
</svg>
